<svg width="392" height="274" viewBox="0 0 392 274" fill="none" xmlns="http://www.w3.org/2000/svg">
<rect width="392" height="274" fill="#EDEDED"/>
<path fill-rule="evenodd" clip-rule="evenodd" d="M182 112C182 108.686 184.686 106 188 106H205C208.314 106 211 108.686 211 112V117H236C237.657 117 239 118.343 239 120V165C239 166.657 237.657 168 236 168H156C154.343 168 153 166.657 153 165V120C153 118.343 154.343 117 156 117H182V112ZM234 122H214V128H234V122ZM215 144.5C215 154.717 206.717 163 196.5 163C186.283 163 178 154.717 178 144.5C178 134.283 186.283 126 196.5 126C206.717 126 215 134.283 215 144.5ZM196.5 158C203.956 158 210 151.956 210 144.5C210 137.044 203.956 131 196.5 131C189.044 131 183 137.044 183 144.5C183 151.956 189.044 158 196.5 158Z" fill="#DCDCDC"/>
</svg>
