<svg width="19" height="21" viewBox="0 0 19 21" fill="none" xmlns="http://www.w3.org/2000/svg">
<path fill-rule="evenodd" clip-rule="evenodd" d="M5.22732 7.71401C5.34888 3.69152 7.61976 2.01684 9.50884 2.00014C11.3803 1.9836 13.6539 3.59634 13.7729 7.71401H5.22732ZM3.22675 7.71401C3.35593 2.87684 6.23096 0.0290337 9.49116 0.000221107C12.7716 -0.02877 15.6463 2.79447 15.7734 7.71401H18C18.5523 7.71401 19 8.16173 19 8.71401V19.3807C19 19.933 18.5523 20.3807 18 20.3807H1C0.447715 20.3807 0 19.933 0 19.3807V8.71401C0 8.16173 0.447715 7.71401 1 7.71401H3.22675ZM9.79282 14.0062C10.2333 13.8793 10.5556 13.4732 10.5556 12.9918C10.5556 12.4088 10.083 11.9363 9.5 11.9363C8.91703 11.9363 8.44444 12.4088 8.44444 12.9918C8.44444 13.4732 8.76665 13.8793 9.20716 14.0062L8.58585 16.1585H10.4141L9.79282 14.0062Z" fill="#212121"/>
</svg>
