<svg width="19" height="21" viewBox="0 0 19 21" fill="none" xmlns="http://www.w3.org/2000/svg">
<path fill-rule="evenodd" clip-rule="evenodd" d="M5.50257 7.71441C5.53953 5.68609 5.97089 4.32755 6.52576 3.47451C7.09295 2.60255 7.80325 2.22832 8.48424 2.15348C9.89393 1.99857 11.6055 3.12656 12.0194 5.19609L13.9806 4.80387C13.3945 1.87336 10.8561 -0.119208 8.26576 0.165451C6.94675 0.310404 5.71955 1.046 4.84924 2.38398C4.02597 3.64963 3.53935 5.41993 3.50228 7.71441H1C0.447715 7.71441 0 8.16212 0 8.71441V19.3811C0 19.9334 0.447715 20.3811 1 20.3811H18C18.5523 20.3811 19 19.9334 19 19.3811V8.71441C19 8.16212 18.5523 7.71441 18 7.71441H5.50257ZM9.79282 14.0066C10.2333 13.8797 10.5556 13.4736 10.5556 12.9922C10.5556 12.4092 10.083 11.9367 9.5 11.9367C8.91703 11.9367 8.44444 12.4092 8.44444 12.9922C8.44444 13.4736 8.76665 13.8797 9.20716 14.0066L8.58585 16.1589H10.4141L9.79282 14.0066Z" fill="#212121"/>
</svg>
